<?xml version="1.0" encoding="UTF-8" standalone="no"?>
<!-- Generator: Adobe Illustrator 18.0.0, SVG Export Plug-In . SVG Version: 6.00 Build 0)  -->

<svg
   xmlns:dc="http://purl.org/dc/elements/1.1/"
   xmlns:cc="http://creativecommons.org/ns#"
   xmlns:rdf="http://www.w3.org/1999/02/22-rdf-syntax-ns#"
   xmlns:svg="http://www.w3.org/2000/svg"
   xmlns="http://www.w3.org/2000/svg"
   xmlns:sodipodi="http://sodipodi.sourceforge.net/DTD/sodipodi-0.dtd"
   xmlns:inkscape="http://www.inkscape.org/namespaces/inkscape"
   version="1.1"
   x="0px"
   y="0px"
   viewBox="0 0 91.532119 100.00003"
   enable-background="new 0 0 500 500"
   xml:space="preserve"
   id="svg206"
   sodipodi:docname="chill-mirrored.svg"
   width="91.53212"
   height="100.00003"
   inkscape:version="0.92.4 5da689c313, 2019-01-14"
   inkscape:export-filename="/home/zaeph/org/svg/chill-mirrored.svg.png"
   inkscape:export-xdpi="960"
   inkscape:export-ydpi="960"><metadata
     id="metadata212"><rdf:RDF><cc:Work
         rdf:about=""><dc:format>image/svg+xml</dc:format><dc:type
           rdf:resource="http://purl.org/dc/dcmitype/StillImage" /><dc:title></dc:title></cc:Work></rdf:RDF></metadata><defs
     id="defs210" /><sodipodi:namedview
     pagecolor="#000000"
     bordercolor="#666666"
     borderopacity="1"
     objecttolerance="10"
     gridtolerance="10"
     guidetolerance="10"
     inkscape:pageopacity="0"
     inkscape:pageshadow="2"
     inkscape:window-width="2560"
     inkscape:window-height="1376"
     id="namedview208"
     showgrid="false"
     inkscape:zoom="10.668544"
     inkscape:cx="28.977996"
     inkscape:cy="42.32336"
     inkscape:window-x="0"
     inkscape:window-y="64"
     inkscape:window-maximized="0"
     inkscape:current-layer="g1833"
     inkscape:pagecheckerboard="true" /><g
     inkscape:groupmode="layer"
     id="layer1"
     inkscape:label="Shadow"
     style="display:inline"
     transform="translate(-66.789996,-350.30076)"><ellipse
       id="path1020"
       cx="-106.28006"
       cy="432.68777"
       rx="32.392097"
       ry="7.9263902"
       style="opacity:0.2;fill:#000000;fill-opacity:1;stroke:none;stroke-width:0.24965009"
       transform="scale(-1,1)" /></g><g
     style="display:inline"
     inkscape:label="Char copy"
     id="g1833"
     inkscape:groupmode="layer"
     transform="translate(-66.789996,-350.30076)"><path
       style="fill:#000000;fill-opacity:1;stroke:none;stroke-width:0.24965009"
       d="m 111.07851,350.3008 c 0.13847,7.8e-4 0.28173,0.0212 0.43152,0.0649 0.97364,0.29958 1.44807,1.19823 1.09856,2.27172 -0.4993,1.5728 -1.02337,3.12082 -1.54764,4.69362 -0.0749,0.24965 -0.22488,0.4993 -0.19991,0.74895 0.17475,0.12482 0.32474,0.0497 0.44956,0.0497 2.37168,-0.14979 4.7181,-0.29938 7.06481,-0.42421 0.62412,-0.025 1.22338,-0.0752 1.84751,-0.0502 0.9237,0.0499 1.54812,0.77421 1.54812,1.67295 0,0.62413 -0.32494,1.04834 -0.77431,1.42281 -1.47293,1.19832 -2.97054,2.39674 -4.44348,3.59506 -0.14979,0.12482 -0.39934,0.22468 -0.39934,0.4993 0.19972,0.0749 0.37428,0.14989 0.54904,0.22478 5.4174,1.9972 10.11092,5.0679 14.08036,9.23706 2.9209,3.04573 5.24274,6.49099 6.96533,10.33561 0.22469,0.4993 0.49901,0.77391 1.0732,0.87377 2.67126,0.52427 5.29249,1.17336 7.88885,1.9972 2.74615,0.89874 5.44237,1.94708 7.86398,3.54484 0.64909,0.4244 1.2736,0.89864 1.7729,1.52277 1.34811,1.67265 1.24825,3.69482 -0.24965,5.24265 -0.57419,0.59916 -1.24834,1.04882 -1.97233,1.4233 -1.09846,0.59916 -2.27201,1.07339 -3.44537,1.52276 -0.44937,0.17476 -0.9237,0.29968 -1.37307,0.59926 0.82384,1.44797 1.02366,2.97055 0.97373,4.56831 -0.0499,1.37307 -0.0748,2.74615 -0.14969,4.11922 -0.14979,2.69622 -0.24994,5.36768 -0.4247,8.0639 -0.24965,3.96943 -0.52407,7.93867 -0.79869,11.90811 -0.14979,2.37168 -0.29958,4.74335 -0.62412,7.11503 -0.0749,0.52426 -0.0499,0.54923 0.4993,0.62412 1.59776,0.19972 3.17065,0.4994 4.71849,0.84891 0.9986,0.22469 2.02206,0.44947 3.02066,0.72408 1.04853,0.29958 1.74736,1.24806 1.79729,2.29659 0.0499,1.0735 -0.59877,2.04733 -1.59737,2.44677 -0.59916,0.24965 -1.22348,0.19952 -1.82264,0.0497 -2.14699,-0.52426 -4.29398,-0.99831 -6.49091,-1.32285 -1.09846,-0.14979 -2.17176,-0.29987 -3.17036,-0.79918 -1.29818,-0.67405 -1.97243,-1.72248 -2.07229,-3.14549 -0.0499,-0.62412 -0.0248,-1.27302 0.0751,-1.92211 0.19972,-1.27322 0.29949,-2.57149 0.39935,-3.84471 0.37447,-5.19272 0.72379,-10.41041 1.04833,-15.60313 0.24965,-3.76972 0.47463,-7.53953 0.54952,-11.33421 0.025,-0.42441 0.0746,-0.84862 -0.0502,-1.29799 -0.27461,0.0749 -0.37447,0.24956 -0.4993,0.39935 -1.82244,1.97223 -3.52016,4.09406 -5.21778,6.16616 -0.29958,0.37447 -0.49911,0.79888 -0.67386,1.24825 -0.72399,1.97224 -1.62253,3.86977 -2.67106,5.69222 -1.84741,3.22048 -4.14439,6.06649 -6.81565,8.61292 -2.57139,2.32175 -5.3427,4.34372 -8.56319,5.91652 -3.94447,1.9972 -8.08827,3.29567 -12.45715,3.79497 -0.57419,0.0749 -1.14839,0.17456 -1.74755,0.17456 -0.34951,0 -0.49939,0.12483 -0.47443,0.4993 l 0.14969,3.51997 c -0.0499,0.59916 0.0248,1.19822 0.0497,1.77242 0.025,0.57419 -0.17456,1.32334 0.19991,1.69781 0.39944,0.39944 1.17326,0.32445 1.77242,0.39935 2.04713,0.24965 4.11942,0.39934 6.19152,0.52416 0.62412,0.025 1.22338,0.17495 1.72268,0.57439 0.82385,0.64909 1.1482,1.79729 0.79869,2.79589 -0.32455,0.97364 -1.24806,1.64808 -2.29659,1.64808 -0.9237,-0.025 -1.8478,-0.10015 -2.7715,-0.17505 -1.9972,-0.14979 -4.01937,-0.24945 -5.99161,-0.67386 -1.4979,-0.29958 -2.89584,-0.84881 -3.76962,-2.24685 -0.57419,-0.9237 -0.77372,-1.97253 -0.79868,-3.04602 -0.0499,-1.14839 -0.0502,-2.29649 -0.17505,-3.44488 0.0749,-1.09846 2e-4,-2.17186 -0.0497,-3.27032 -0.025,-0.47433 -0.19963,-0.57419 -0.649,-0.62412 -2.821042,-0.24965 -5.567102,-0.82395 -8.263322,-1.72269 -3.79468,-1.27321 -7.31513,-3.09566 -10.51066,-5.4923 -0.59916,-0.44937 -1.19812,-0.92371 -1.79728,-1.37308 -0.17476,-0.17475 -0.32445,-0.34941 -0.52417,-0.52416 -1.77251,-1.54783 -3.39543,-3.24584 -4.81844,-5.14318 -6.4909,-8.58797 -8.96215,-18.22446 -7.18963,-28.83459 1.72258,-10.33551 7.065,-18.44875 15.628,-24.44035 0.62412,-0.42441 1.22338,-0.82395 1.84751,-1.22339 -0.0499,-0.0999 -0.05,-0.17495 -0.1,-0.19991 -0.64909,-0.59916 -1.32324,-1.223 -1.97234,-1.82216 -0.57419,-0.54923 -1.17345,-1.07349 -1.72268,-1.62272 -0.9986,-1.02357 -0.574,-2.4966 0.82404,-2.84611 0.19972,-0.0499 0.37419,-0.0999 0.57391,-0.12482 1.54783,-0.24965 3.09605,-0.47444 4.64388,-0.72409 l 2.32145,-0.37447 c 0.24965,-0.025 0.49949,-0.0501 0.44956,-0.44957 -0.14979,-1.12342 -0.24965,-2.22149 -0.37447,-3.34492 -0.12483,-1.02356 -0.24994,-2.07219 -0.29987,-3.09576 -0.0499,-1.12342 0.89893,-1.97214 1.94746,-1.77242 0.34951,0.0499 0.62393,0.22459 0.92351,0.39935 2.67126,1.59776 5.34291,3.17046 8.014162,4.76822 0.42441,0.24965 0.72399,0.27471 1.12343,-0.0249 1.59776,-1.14839 3.19523,-2.24685 4.81795,-3.37028 1.32315,-0.9237 2.62152,-1.84741 3.94467,-2.74615 0.35575,-0.24341 0.72554,-0.4168 1.14098,-0.41446 z m 28.89163,40.60813 c 0.62412,2.82104 1.07378,5.59226 1.04882,8.58806 3.44517,-1.62273 6.84012,-3.02087 10.43508,-4.46884 -3.64489,-2.09706 -7.4895,-3.14559 -11.4839,-4.11922 z"
       id="path1854"
       inkscape:connector-curvature="0" /><path
       style="fill:#5bd56b;fill-opacity:1;stroke:none;stroke-width:0.24965009"
       d="m 107.74041,356.40699 c 0.025,0.0749 0.0502,0.12483 0.0502,0.12483 -0.29958,0.89874 -0.54923,1.82254 -0.87377,2.72128 -0.44937,1.24825 0.32445,2.4965 1.77242,2.37168 2.02216,-0.12483 4.04443,-0.19953 6.21638,-0.29939 -0.77391,0.79888 -1.59795,1.32324 -2.32194,1.97233 -0.34951,0.32455 -0.69892,0.37428 -1.14829,0.29939 -3.02077,-0.64909 -6.09166,-0.87387 -9.18732,-0.72408 -2.846012,0.12482 -5.617132,0.57429 -8.363282,1.3482 -1.77251,0.4993 -3.52016,1.12333 -5.21778,1.89725 -0.24965,0.0999 -0.49921,0.29948 -0.77382,0.0249 -0.62413,-0.59916 -1.29808,-1.12342 -1.89724,-1.87237 1.09846,-0.17476 2.12192,-0.32455 3.14549,-0.4993 0.9986,-0.14979 1.9973,-0.27462 2.97093,-0.4993 0.89874,-0.19972 1.32305,-0.79859 1.27312,-1.69733 -0.025,-0.59916 -0.0998,-1.17326 -0.14969,-1.77242 -0.0749,-1.04853 -0.29958,-2.09745 -0.24965,-3.14598 0.29958,-0.0499 0.44927,0.14979 0.64899,0.24965 1.94727,1.14839 3.91961,2.29688 5.84191,3.47023 0.923712,0.5742 1.747552,0.54914 2.621332,-0.1 1.54783,-1.12343 3.12082,-2.19683 4.69361,-3.27032 0.29958,-0.19972 0.57391,-0.47444 0.94838,-0.59926 z"
       id="path1852"
       inkscape:connector-curvature="0" /><path
       style="fill:#7076cc;fill-opacity:1;stroke:none;stroke-width:0.24965009"
       d="m 103.94593,367.82117 c 1.74755,-0.002 3.4951,0.14774 5.24265,0.4442 6.46593,1.0735 12.05819,3.89454 16.82651,8.36328 3.9195,3.66986 6.69052,8.11372 8.38814,13.20659 1.19832,3.61992 1.72269,7.36487 1.59786,11.18451 -0.025,0.62413 -0.20011,0.92342 -0.7743,1.19803 -2.54644,1.22329 -5.11744,2.44687 -7.58898,3.79498 -1.39804,0.74895 -2.82104,1.49761 -4.11922,2.44628 -0.82385,0.62412 -1.34821,1.42339 -1.59786,2.39703 -0.12482,0.54923 -0.22459,1.09836 -0.27452,1.64759 -0.12482,2.34671 0.12473,4.6432 0.52417,6.93998 0.14979,0.89874 0.69883,1.52296 1.54764,1.84751 1.82244,0.69902 3.69472,-0.79888 3.39514,-2.74615 -0.27462,-1.77252 -0.47405,-3.54503 -0.44908,-5.36748 0,-0.62413 0.22459,-0.9987 0.77382,-1.34821 2.27181,-1.32314 4.64349,-2.49621 6.9902,-3.69453 0.12482,-0.0749 0.27481,-0.19982 0.44956,-0.1 0.0749,0.12483 0.025,0.22488 0,0.32474 -0.79888,2.97084 -2.02245,5.76692 -3.67014,8.36328 -3.91951,6.21629 -9.31205,10.60984 -16.20239,13.18124 -2.69622,0.9986 -5.46695,1.62282 -8.33792,1.8475 -0.64909,0.0499 -0.64929,0.0249 -0.69922,-0.59925 -0.17475,-3.81965 -0.34931,-7.61404 -0.54903,-11.43369 -0.0499,-1.17335 -0.14989,-2.3471 -0.22478,-3.52045 -0.0749,-0.97364 -0.12512,-1.99711 -0.17505,-3.02067 0.9986,0 4.44416,0.67405 5.51765,1.12342 1.42301,0.5742 1.52287,0.649 1.24826,2.27172 -0.19972,1.19832 -0.47463,2.37197 -0.67435,3.54533 -0.17476,0.94867 0.0751,1.79728 0.82404,2.42141 1.52286,1.27321 3.74475,0.47424 4.11922,-1.47304 0.19972,-1.07349 0.44928,-2.1466 0.649,-3.22009 0.19972,-1.0735 0.34931,-2.17235 0.17456,-3.27081 -0.34951,-2.29678 -1.74746,-3.76932 -3.76962,-4.71799 -1.02357,-0.47434 -2.09677,-0.74895 -3.19523,-0.9986 -3.02077,-0.6491 -6.0665,-1.12372 -9.11223,-1.54813 -3.520072,-0.4993 -7.040332,-0.97363 -10.560392,-1.4979 -1.74755,-0.24965 -3.49491,-0.4994 -5.16756,-1.09856 -4.19413,-1.47293 -8.33832,-3.14539 -12.48251,-4.79308 -0.52426,-0.19972 -0.64909,-0.47444 -0.62412,-0.97374 0.0499,-2.57139 0.42401,-5.09266 1.09807,-7.53923 1.32314,-4.81825 3.64499,-9.08746 6.96533,-12.80725 5.5672,-6.19132 12.50776,-9.71139 20.771182,-10.61013 1.04853,-0.11234 2.09696,-0.16836 3.1455,-0.16968 z"
       id="path1850"
       inkscape:connector-curvature="0" /><path
       style="fill:#000000;fill-opacity:1;stroke:none;stroke-width:0.24965009"
       d="m 118.92493,378.3762 c -2.37168,-0.025 -4.19422,1.82274 -4.21918,4.16945 -0.0499,2.27181 1.997,4.26892 4.16896,4.14409 2.37167,0 4.19431,-1.84751 4.19431,-4.21918 0,-2.24685 -1.87227,-4.09436 -4.14409,-4.09436 z"
       id="path1848"
       inkscape:connector-curvature="0" /><path
       style="fill:#000000;fill-opacity:1;stroke:none;stroke-width:0.24965009"
       d="m 93.061278,381.74648 c -2.29678,0 -4.11962,1.87257 -4.14458,4.19431 -0.025,2.14699 1.77281,4.16896 4.16945,4.16896 2.37167,0 4.16896,-1.87237 4.16896,-4.24405 -0.025,-2.32174 -1.84712,-4.11922 -4.19383,-4.11922 z"
       id="path1846"
       inkscape:connector-curvature="0" /><path
       style="fill:#000000;fill-opacity:1;stroke:none;stroke-width:0.24965009"
       d="m 112.88311,391.00547 c -0.25986,0.007 -0.52417,0.0795 -0.77382,0.22771 -2.84601,1.74755 -5.86658,1.59805 -8.91232,0.79917 -0.27461,-0.0749 -0.52455,-0.17485 -0.79917,-0.22478 -0.74895,-0.12483 -1.52257,0.29948 -1.82215,1.02347 -0.29958,0.72398 -0.0499,1.54783 0.62412,1.9972 0.22469,0.14979 0.4993,0.27471 0.74895,0.34961 1.62273,0.52426 3.29529,0.79868 5.01787,0.79868 1.87238,0 3.66976,-0.24945 5.39235,-1.04833 0.52426,-0.24965 1.04843,-0.52427 1.52277,-0.87378 0.72398,-0.54923 0.89893,-1.4979 0.44956,-2.24685 -0.3261,-0.5149 -0.87648,-0.81745 -1.44816,-0.8021 z"
       id="path1842"
       inkscape:connector-curvature="0" /><path
       style="fill:#7076cc;fill-opacity:1;stroke:none;stroke-width:0.24965009"
       d="m 72.514878,405.4135 c 2.37168,0.9237 4.69333,1.77261 7.01507,2.72128 3.79468,1.54783 7.68913,2.54643 11.75842,2.9958 1.64769,0.12483 3.29577,0.42421 5.14318,0.67386 -0.54923,0.44937 -0.97402,0.79879 -1.39843,1.1483 -4.11922,3.32034 -8.33821,6.51586 -12.38254,9.986 -0.4993,0.42441 -0.4993,0.4246 -0.9986,-0.0497 -4.76832,-4.61853 -7.78899,-10.21079 -9.1371,-16.70169 -0.0499,-0.24965 -0.17475,-0.52417 0,-0.77382 z"
       id="path1840"
       inkscape:connector-curvature="0" /><path
       style="fill:#7076cc;fill-opacity:1;stroke:none;stroke-width:0.24965009"
       d="m 100.10122,415.29955 c 0.0749,0.9237 0.12472,1.64769 0.14969,2.37167 0.0749,1.54783 0.14989,3.0707 0.22478,4.61853 0.14979,2.97083 0.29939,5.94157 0.42421,8.88744 0.025,0.59916 -0.0246,0.62442 -0.59877,0.54953 -4.169162,-0.4993 -8.089052,-1.74746 -11.758912,-3.76962 -0.77391,-0.42441 -1.5725,-0.84901 -2.32145,-1.44817 4.4937,-3.86957 9.21199,-7.33981 13.880452,-11.20938 z"
       id="path1825"
       inkscape:connector-curvature="0" /></g></svg>